<mxfile host="app.diagrams.net" modified="2023-09-28T13:18:56.335Z" agent="Mozilla/5.0 (Macintosh; Intel Mac OS X 10_15_7) AppleWebKit/537.36 (KHTML, like Gecko) Chrome/116.0.0.0 Safari/537.36" etag="8SVLErnTpChL9TLrGh2x" version="21.3.4" type="device">
  <diagram name="Страница 1" id="aJ-As_fF0RegkES1CfJL">
    <mxGraphModel dx="1026" dy="575" grid="1" gridSize="10" guides="1" tooltips="1" connect="1" arrows="1" fold="1" page="1" pageScale="1" pageWidth="827" pageHeight="1169" math="0" shadow="0">
      <root>
        <mxCell id="0" />
        <mxCell id="1" parent="0" />
        <mxCell id="QIdmbO3irZaSvZSlnpBr-3" value="" style="edgeStyle=orthogonalEdgeStyle;rounded=0;orthogonalLoop=1;jettySize=auto;html=1;" edge="1" parent="1" source="QIdmbO3irZaSvZSlnpBr-1" target="QIdmbO3irZaSvZSlnpBr-2">
          <mxGeometry relative="1" as="geometry" />
        </mxCell>
        <mxCell id="QIdmbO3irZaSvZSlnpBr-1" value="&amp;nbsp;public char FindMax()" style="strokeWidth=2;html=1;shape=mxgraph.flowchart.terminator;whiteSpace=wrap;" vertex="1" parent="1">
          <mxGeometry x="330" y="120" width="100" height="60" as="geometry" />
        </mxCell>
        <mxCell id="QIdmbO3irZaSvZSlnpBr-5" value="Так" style="edgeStyle=orthogonalEdgeStyle;rounded=0;orthogonalLoop=1;jettySize=auto;html=1;" edge="1" parent="1" source="QIdmbO3irZaSvZSlnpBr-2" target="QIdmbO3irZaSvZSlnpBr-4">
          <mxGeometry x="0.2" relative="1" as="geometry">
            <mxPoint as="offset" />
          </mxGeometry>
        </mxCell>
        <mxCell id="QIdmbO3irZaSvZSlnpBr-8" value="Ні" style="edgeStyle=orthogonalEdgeStyle;rounded=0;orthogonalLoop=1;jettySize=auto;html=1;entryX=1;entryY=0.5;entryDx=0;entryDy=0;" edge="1" parent="1" source="QIdmbO3irZaSvZSlnpBr-2" target="QIdmbO3irZaSvZSlnpBr-6">
          <mxGeometry x="0.0057" relative="1" as="geometry">
            <Array as="points">
              <mxPoint x="460" y="230" />
              <mxPoint x="460" y="370" />
            </Array>
            <mxPoint as="offset" />
          </mxGeometry>
        </mxCell>
        <mxCell id="QIdmbO3irZaSvZSlnpBr-2" value="_Head == null" style="strokeWidth=2;html=1;shape=mxgraph.flowchart.decision;whiteSpace=wrap;" vertex="1" parent="1">
          <mxGeometry x="320" y="200" width="120" height="60" as="geometry" />
        </mxCell>
        <mxCell id="QIdmbO3irZaSvZSlnpBr-7" value="" style="edgeStyle=orthogonalEdgeStyle;rounded=0;orthogonalLoop=1;jettySize=auto;html=1;" edge="1" parent="1" source="QIdmbO3irZaSvZSlnpBr-4" target="QIdmbO3irZaSvZSlnpBr-6">
          <mxGeometry relative="1" as="geometry" />
        </mxCell>
        <mxCell id="QIdmbO3irZaSvZSlnpBr-4" value="The queue is empty." style="shape=parallelogram;perimeter=parallelogramPerimeter;whiteSpace=wrap;html=1;fixedSize=1;strokeWidth=2;" vertex="1" parent="1">
          <mxGeometry x="330" y="290" width="100" height="40" as="geometry" />
        </mxCell>
        <mxCell id="QIdmbO3irZaSvZSlnpBr-12" value="" style="edgeStyle=orthogonalEdgeStyle;rounded=0;orthogonalLoop=1;jettySize=auto;html=1;" edge="1" parent="1" source="QIdmbO3irZaSvZSlnpBr-6" target="QIdmbO3irZaSvZSlnpBr-10">
          <mxGeometry relative="1" as="geometry" />
        </mxCell>
        <mxCell id="QIdmbO3irZaSvZSlnpBr-6" value="&lt;div&gt;char max = _Head._inf;&lt;/div&gt;&lt;div&gt;&lt;span style=&quot;background-color: initial;&quot;&gt;Elem current = _Head;&lt;/span&gt;&lt;/div&gt;" style="whiteSpace=wrap;html=1;strokeWidth=2;" vertex="1" parent="1">
          <mxGeometry x="315" y="350" width="130" height="40" as="geometry" />
        </mxCell>
        <mxCell id="QIdmbO3irZaSvZSlnpBr-14" value="Так" style="edgeStyle=orthogonalEdgeStyle;rounded=0;orthogonalLoop=1;jettySize=auto;html=1;" edge="1" parent="1" source="QIdmbO3irZaSvZSlnpBr-10" target="QIdmbO3irZaSvZSlnpBr-13">
          <mxGeometry x="0.2" relative="1" as="geometry">
            <mxPoint as="offset" />
          </mxGeometry>
        </mxCell>
        <mxCell id="QIdmbO3irZaSvZSlnpBr-21" value="Ні" style="edgeStyle=orthogonalEdgeStyle;rounded=0;orthogonalLoop=1;jettySize=auto;html=1;" edge="1" parent="1" source="QIdmbO3irZaSvZSlnpBr-10" target="QIdmbO3irZaSvZSlnpBr-22">
          <mxGeometry x="-0.9111" relative="1" as="geometry">
            <mxPoint x="390" y="760" as="targetPoint" />
            <Array as="points">
              <mxPoint x="480" y="440" />
              <mxPoint x="480" y="720" />
            </Array>
            <mxPoint as="offset" />
          </mxGeometry>
        </mxCell>
        <mxCell id="QIdmbO3irZaSvZSlnpBr-10" value="current != null" style="strokeWidth=2;html=1;shape=mxgraph.flowchart.decision;whiteSpace=wrap;" vertex="1" parent="1">
          <mxGeometry x="320" y="410" width="120" height="60" as="geometry" />
        </mxCell>
        <mxCell id="QIdmbO3irZaSvZSlnpBr-16" value="Так" style="edgeStyle=orthogonalEdgeStyle;rounded=0;orthogonalLoop=1;jettySize=auto;html=1;" edge="1" parent="1" source="QIdmbO3irZaSvZSlnpBr-13" target="QIdmbO3irZaSvZSlnpBr-15">
          <mxGeometry x="-0.4286" relative="1" as="geometry">
            <mxPoint as="offset" />
          </mxGeometry>
        </mxCell>
        <mxCell id="QIdmbO3irZaSvZSlnpBr-18" value="Ні" style="edgeStyle=orthogonalEdgeStyle;rounded=0;orthogonalLoop=1;jettySize=auto;html=1;" edge="1" parent="1" source="QIdmbO3irZaSvZSlnpBr-13" target="QIdmbO3irZaSvZSlnpBr-17">
          <mxGeometry relative="1" as="geometry">
            <Array as="points">
              <mxPoint x="460" y="530" />
              <mxPoint x="460" y="665" />
            </Array>
          </mxGeometry>
        </mxCell>
        <mxCell id="QIdmbO3irZaSvZSlnpBr-13" value="current._inf &amp;gt; max" style="rhombus;whiteSpace=wrap;html=1;strokeWidth=2;" vertex="1" parent="1">
          <mxGeometry x="320" y="500" width="120" height="60" as="geometry" />
        </mxCell>
        <mxCell id="QIdmbO3irZaSvZSlnpBr-19" value="" style="edgeStyle=orthogonalEdgeStyle;rounded=0;orthogonalLoop=1;jettySize=auto;html=1;" edge="1" parent="1" source="QIdmbO3irZaSvZSlnpBr-15" target="QIdmbO3irZaSvZSlnpBr-17">
          <mxGeometry relative="1" as="geometry" />
        </mxCell>
        <mxCell id="QIdmbO3irZaSvZSlnpBr-15" value="max = current._inf;" style="whiteSpace=wrap;html=1;strokeWidth=2;" vertex="1" parent="1">
          <mxGeometry x="325" y="590" width="110" height="30" as="geometry" />
        </mxCell>
        <mxCell id="QIdmbO3irZaSvZSlnpBr-20" style="edgeStyle=orthogonalEdgeStyle;rounded=0;orthogonalLoop=1;jettySize=auto;html=1;" edge="1" parent="1" source="QIdmbO3irZaSvZSlnpBr-17" target="QIdmbO3irZaSvZSlnpBr-10">
          <mxGeometry relative="1" as="geometry">
            <Array as="points">
              <mxPoint x="300" y="665" />
              <mxPoint x="300" y="440" />
            </Array>
          </mxGeometry>
        </mxCell>
        <mxCell id="QIdmbO3irZaSvZSlnpBr-17" value="current = current._R;" style="whiteSpace=wrap;html=1;strokeWidth=2;" vertex="1" parent="1">
          <mxGeometry x="322.5" y="650" width="115" height="30" as="geometry" />
        </mxCell>
        <mxCell id="QIdmbO3irZaSvZSlnpBr-22" value="return max;" style="strokeWidth=2;html=1;shape=mxgraph.flowchart.terminator;whiteSpace=wrap;" vertex="1" parent="1">
          <mxGeometry x="342.5" y="700" width="75" height="40" as="geometry" />
        </mxCell>
      </root>
    </mxGraphModel>
  </diagram>
</mxfile>
